<svg preserveAspectRatio="none" width="100%" height="100%" overflow="visible" style="display: block;" viewBox="0 0 21 20" fill="none" xmlns="http://www.w3.org/2000/svg">
<g id="Icon">
<path id="Vector" d="M17.92 17.9167V16.25C17.92 13.6722 17.4644 11.4778 16.5533 9.66667C15.7089 7.97778 14.5144 6.7 12.97 5.83333C11.5033 5 9.82 4.58333 7.92 4.58333H4.78667C4.65333 3.82778 4.58667 2.99444 4.58667 2.08333H2.92C2.92 3.21667 3.01444 4.25556 3.20333 5.2C3.01444 6.27778 2.92 7.73889 2.92 9.58333C2.92 10.7167 3.13667 11.8 3.57 12.8333C3.99222 13.8222 4.58944 14.7028 5.36167 15.475C6.13389 16.2472 7.01444 16.8444 8.00333 17.2667C9.03667 17.7 10.12 17.9167 11.2533 17.9167C11.5867 17.9167 12.1089 17.8611 12.82 17.75C13.3978 17.6611 13.8533 17.6056 14.1867 17.5833C14.7533 17.5389 15.3089 17.5333 15.8533 17.5667C16.5089 17.6222 17.1978 17.7389 17.92 17.9167ZM11.2533 16.25C10.0422 16.25 8.92 15.9444 7.88667 15.3333C6.88667 14.7444 6.09222 13.95 5.50333 12.95C4.89222 11.9167 4.58667 10.7944 4.58667 9.58333V8.71667C5.09778 9.51667 5.74222 10.2611 6.52 10.95C7.26444 11.6056 8.14778 12.2222 9.17 12.8L10.0033 11.3667C8.77 10.6556 7.77556 9.90556 7.02 9.11667C6.22 8.28333 5.62556 7.32778 5.23667 6.25H7.92C9.59778 6.25 11.0561 6.61667 12.295 7.35C13.5339 8.08333 14.4867 9.16111 15.1533 10.5833C15.8533 12.0611 16.22 13.8444 16.2533 15.9333C15.6978 15.8778 15.1311 15.8611 14.5533 15.8833C14.0311 15.9167 13.4256 15.9833 12.7367 16.0833C12.2478 16.1611 11.92 16.2083 11.7533 16.225C11.5867 16.2417 11.42 16.25 11.2533 16.25Z" fill="var(--fill-0, #2D5A27)"/>
</g>
</svg>
