<svg preserveAspectRatio="none" width="100%" height="100%" overflow="visible" style="display: block;" viewBox="0 0 30 30" fill="none" xmlns="http://www.w3.org/2000/svg">
<path id="Vector" d="M23.3333 23.3333C24.1069 23.3333 24.8487 23.6406 25.3957 24.1876C25.9427 24.7346 26.25 25.4765 26.25 26.25C26.25 27.0235 25.9427 27.7654 25.3957 28.3124C24.8487 28.8594 24.1069 29.1667 23.3333 29.1667C22.5598 29.1667 21.8179 28.8594 21.2709 28.3124C20.724 27.7654 20.4167 27.0235 20.4167 26.25C20.4167 24.6312 21.7146 23.3333 23.3333 23.3333ZM0 0H4.76875L6.13958 2.91667H27.7083C28.0951 2.91667 28.466 3.07031 28.7395 3.3438C29.013 3.61729 29.1667 3.98823 29.1667 4.375C29.1667 4.62292 29.0937 4.87083 28.9917 5.10417L23.7708 14.5396C23.275 15.4292 22.3125 16.0417 21.2187 16.0417H10.3542L9.04167 18.4187L8.99792 18.5937C8.99792 18.6904 9.03633 18.7832 9.1047 18.8515C9.17307 18.9199 9.26581 18.9583 9.3625 18.9583H26.25V21.875H8.75C7.97645 21.875 7.23459 21.5677 6.6876 21.0207C6.14062 20.4737 5.83333 19.7319 5.83333 18.9583C5.83333 18.4479 5.96458 17.9667 6.18333 17.5583L8.16667 13.9854L2.91667 2.91667H0V0ZM8.75 23.3333C9.52355 23.3333 10.2654 23.6406 10.8124 24.1876C11.3594 24.7346 11.6667 25.4765 11.6667 26.25C11.6667 27.0235 11.3594 27.7654 10.8124 28.3124C10.2654 28.8594 9.52355 29.1667 8.75 29.1667C7.97645 29.1667 7.23459 28.8594 6.6876 28.3124C6.14062 27.7654 5.83333 27.0235 5.83333 26.25C5.83333 24.6312 7.13125 23.3333 8.75 23.3333ZM21.875 13.125L25.9292 5.83333H7.49583L10.9375 13.125H21.875Z" fill="var(--fill-0, black)"/>
</svg>
