<svg preserveAspectRatio="none" width="100%" height="100%" overflow="visible" style="display: block;" viewBox="0 0 17 16" fill="none" xmlns="http://www.w3.org/2000/svg">
<g id="Icon">
<path id="Vector" d="M8.335 10C7.97056 10 7.635 9.91111 7.32833 9.73333C7.02167 9.55556 6.77944 9.31333 6.60167 9.00667C6.42389 8.7 6.335 8.36444 6.335 8C6.335 7.63556 6.42389 7.3 6.60167 6.99333C6.77944 6.68667 7.02167 6.44444 7.32833 6.26667C7.635 6.08889 7.97056 6 8.335 6C8.69944 6 9.035 6.08889 9.34167 6.26667C9.64833 6.44444 9.89056 6.68667 10.0683 6.99333C10.2461 7.3 10.335 7.63556 10.335 8C10.335 8.36444 10.2461 8.7 10.0683 9.00667C9.89056 9.31333 9.64833 9.55556 9.34167 9.73333C9.035 9.91111 8.69944 10 8.335 10ZM8.335 11.3333C8.93944 11.3333 9.49722 11.1844 10.0083 10.8867C10.5194 10.5889 10.9239 10.1844 11.2217 9.67333C11.5194 9.16222 11.6683 8.60444 11.6683 8C11.6683 7.39556 11.5194 6.83778 11.2217 6.32667C10.9239 5.81556 10.5194 5.41111 10.0083 5.11333C9.49722 4.81556 8.93944 4.66667 8.335 4.66667C7.73056 4.66667 7.17278 4.81556 6.66167 5.11333C6.15056 5.41111 5.74611 5.81556 5.44833 6.32667C5.15056 6.83778 5.00167 7.39556 5.00167 8C5.00167 8.60444 5.15056 9.16222 5.44833 9.67333C5.74611 10.1844 6.15056 10.5889 6.66167 10.8867C7.17278 11.1844 7.73056 11.3333 8.335 11.3333ZM12.6683 11.5067C12.6683 11.2756 12.5861 11.0778 12.4217 10.9133C12.2572 10.7489 12.0617 10.6667 11.835 10.6667C11.6083 10.6667 11.4128 10.7489 11.2483 10.9133C11.0839 11.0778 11.0017 11.2733 11.0017 11.5C11.0017 11.7267 11.0839 11.9222 11.2483 12.0867C11.4128 12.2511 11.6083 12.3333 11.835 12.3333C12.0617 12.3333 12.2572 12.2511 12.4217 12.0867C12.5861 11.9222 12.6683 11.7289 12.6683 11.5067ZM8.335 13.3333C7.51722 13.3333 6.96167 13.3311 6.66833 13.3267C6.375 13.3222 6.03722 13.3111 5.655 13.2933C5.175 13.2756 4.775 13.2044 4.455 13.08C4.17944 12.9733 3.93722 12.8156 3.72833 12.6067C3.51944 12.3978 3.36167 12.1556 3.255 11.88C3.13056 11.56 3.05944 11.16 3.04167 10.68C3.02389 10.3156 3.01278 9.98889 3.00833 9.7C3.00389 9.41111 3.00167 8.84444 3.00167 8C3.00167 7.18222 3.00389 6.62667 3.00833 6.33333C3.01278 6.04 3.02389 5.70222 3.04167 5.32C3.05944 4.84 3.13056 4.44 3.255 4.12C3.36167 3.84444 3.51944 3.60222 3.72833 3.39333C3.93722 3.18444 4.17944 3.03111 4.455 2.93333C4.775 2.8 5.175 2.72444 5.655 2.70667C6.01944 2.68889 6.34611 2.67778 6.635 2.67333C6.92389 2.66889 7.49056 2.66667 8.335 2.66667C9.15278 2.66667 9.70833 2.66889 10.0017 2.67333C10.295 2.67778 10.6328 2.68889 11.015 2.70667C11.495 2.72444 11.895 2.79556 12.215 2.92C12.4906 3.02667 12.7328 3.18444 12.9417 3.39333C13.1506 3.60222 13.3039 3.84444 13.4017 4.12C13.535 4.44 13.6106 4.84 13.6283 5.32C13.6461 5.68444 13.6572 6.01111 13.6617 6.3C13.6661 6.58889 13.6683 7.15556 13.6683 8C13.6683 8.81778 13.6661 9.37333 13.6617 9.66667C13.6572 9.96 13.6461 10.2978 13.6283 10.68C13.6106 11.16 13.5394 11.56 13.415 11.88C13.3083 12.1556 13.1506 12.3978 12.9417 12.6067C12.7328 12.8156 12.4906 12.9733 12.215 13.08C11.895 13.2044 11.495 13.2756 11.015 13.2933C10.6506 13.3111 10.3239 13.3222 10.035 13.3267C9.74611 13.3311 9.17944 13.3333 8.335 13.3333ZM8.335 14.6667C9.20611 14.6667 9.80167 14.6622 10.1217 14.6533C10.3883 14.6533 10.7083 14.6444 11.0817 14.6267C11.7039 14.6 12.2417 14.4978 12.695 14.32C13.1483 14.1422 13.5439 13.8844 13.8817 13.5467C14.2194 13.2089 14.4772 12.8133 14.655 12.36C14.8328 11.9067 14.935 11.3689 14.9617 10.7467C14.9794 10.3644 14.9883 10.0444 14.9883 9.78667C14.9972 9.44889 15.0017 8.84889 15.0017 7.98667C15.0017 7.12444 14.9972 6.53333 14.9883 6.21333C14.9883 5.94667 14.9794 5.62667 14.9617 5.25333C14.935 4.63111 14.8328 4.09333 14.655 3.64C14.4772 3.18667 14.2194 2.79111 13.8817 2.45333C13.5439 2.11556 13.1483 1.85778 12.695 1.68C12.2417 1.50222 11.7039 1.4 11.0817 1.37333C10.6994 1.35556 10.3794 1.34667 10.1217 1.34667C9.78389 1.33778 9.18389 1.33333 8.32167 1.33333C7.45944 1.33333 6.86833 1.33778 6.54833 1.34667C6.28167 1.34667 5.96167 1.35556 5.58833 1.37333C4.96611 1.4 4.42833 1.50222 3.975 1.68C3.52167 1.85778 3.12611 2.11556 2.78833 2.45333C2.45056 2.79111 2.19278 3.18667 2.015 3.64C1.83722 4.09333 1.735 4.63111 1.70833 5.25333C1.69056 5.63556 1.68167 5.95556 1.68167 6.21333C1.67278 6.55111 1.66833 7.15111 1.66833 8.01333C1.66833 8.87556 1.67278 9.46667 1.68167 9.78667C1.68167 10.0533 1.69056 10.3733 1.70833 10.7467C1.735 11.3689 1.83722 11.9067 2.015 12.36C2.19278 12.8133 2.45056 13.2089 2.78833 13.5467C3.12611 13.8844 3.52167 14.1422 3.975 14.32C4.42833 14.4978 4.96611 14.6 5.58833 14.6267C5.97056 14.6444 6.29056 14.6533 6.54833 14.6533C6.88611 14.6622 7.48167 14.6667 8.335 14.6667Z" fill="var(--fill-0, #2D5A27)"/>
</g>
</svg>
