<svg preserveAspectRatio="none" width="100%" height="100%" overflow="visible" style="display: block;" viewBox="0 0 17 16" fill="none" xmlns="http://www.w3.org/2000/svg">
<g id="Icon">
<path id="Vector" d="M8.84167 9.33333H11.8417L11.5083 8H8.84167V2H7.50833V8H4.84167V9.33333H7.50833V10.5867C7.50833 11.1467 7.535 11.5822 7.58833 11.8933C7.64167 12.1511 7.73056 12.4 7.855 12.64C8.095 13.0756 8.43278 13.4089 8.86833 13.64C9.09944 13.7733 9.34833 13.8622 9.615 13.9067C9.92611 13.9689 10.3617 14 10.9217 14C11.2683 14 11.5706 13.9689 11.8283 13.9067V12.6667H10.9217C10.495 12.6667 10.1861 12.6533 9.995 12.6267C9.80389 12.6 9.63722 12.5467 9.495 12.4667C9.29056 12.36 9.135 12.2089 9.02833 12.0133C8.95722 11.8711 8.90611 11.7044 8.875 11.5133C8.84389 11.3222 8.82833 11.0133 8.82833 10.5867V9.33333H8.84167Z" fill="var(--fill-0, #2D5A27)"/>
</g>
</svg>
