<svg width="14" height="12" viewBox="0 0 14 12" fill="none" xmlns="http://www.w3.org/2000/svg">
<path d="M9.7105 1.39735C9.34723 1.39735 9.0119 1.48584 8.70452 1.66281C8.39714 1.83979 8.1503 2.07964 7.96401 2.38237C7.77772 2.68509 7.68457 3.01809 7.68457 3.38136L7.65663 4.48515C7.65663 4.59692 7.61471 4.69473 7.53088 4.77856C7.44705 4.86239 7.34924 4.89965 7.23747 4.89033L6.09177 4.73664C4.67594 4.55035 3.30204 3.90298 1.97004 2.79454C1.76512 3.93093 1.85827 4.92293 2.24948 5.77057C2.6407 6.59025 3.33464 7.31214 4.3313 7.93622L5.54686 8.70467C5.64932 8.76988 5.7122 8.85837 5.73548 8.97014C5.75877 9.08192 5.74247 9.18438 5.68658 9.27752C5.65864 9.3241 5.62138 9.36601 5.57481 9.40327L4.45705 10.2136C5.14633 10.2509 5.75178 10.2183 6.2734 10.1158C7.38184 9.89229 8.34591 9.47313 9.1656 8.85837C9.9946 8.23429 10.628 7.42857 11.0658 6.44122C11.5315 5.4073 11.7644 4.22434 11.7644 2.89235C11.7644 2.75263 11.6852 2.57565 11.5269 2.36141C11.3406 2.09129 11.1124 1.87239 10.8422 1.70473C10.4976 1.49981 10.1203 1.39735 9.7105 1.39735ZM6.28737 3.35342C6.29669 2.74797 6.45504 2.18676 6.76242 1.6698C7.0698 1.15284 7.4843 0.745323 8.00592 0.447256C8.52754 0.149187 9.09574 0.000152901 9.7105 0.000152901C10.1762 0.000152901 10.6187 0.0886425 11.0378 0.265621C11.457 0.442598 11.8249 0.694093 12.1416 1.0201H12.3652C12.6446 1.02942 12.8728 1.01545 13.0498 0.978189C13.3292 0.912987 13.6459 0.773267 13.9999 0.559031C13.8695 1.20174 13.7624 1.64884 13.6785 1.90034C13.5668 2.24498 13.3944 2.57565 13.1616 2.89235C13.1616 4.57829 12.8356 6.06398 12.1835 7.3494C11.606 8.48578 10.791 9.4219 9.73845 10.1578C8.79767 10.8098 7.7358 11.2522 6.55284 11.4851C5.81699 11.6341 4.98333 11.6667 4.05186 11.5829C3.17629 11.4991 2.35893 11.3291 1.59979 11.0729C0.840645 10.8168 0.307383 10.5257 0 10.1997C0.50299 10.1624 1.01995 10.0832 1.55089 9.96215C2.41715 9.75723 3.09711 9.47779 3.59079 9.12383L3.49299 9.05397C3.02725 8.7559 2.64535 8.46715 2.34729 8.18771C1.80704 7.70335 1.38322 7.15845 1.07584 6.55299C0.675311 5.76125 0.470389 4.88568 0.461074 3.92627C0.461074 2.78057 0.74517 1.52775 1.31336 0.167816C2.49632 1.54638 3.69325 2.4825 4.90415 2.97618C5.22085 3.1159 5.48166 3.20904 5.68658 3.25562C5.80767 3.29287 5.96602 3.32082 6.16163 3.33945L6.28737 3.35342Z" fill="#2D5A27"/>
</svg>
