<svg width="15" height="16" viewBox="0 0 15 16" fill="none" xmlns="http://www.w3.org/2000/svg">
<path d="M15 0.000162125V1.66683C15 4.24461 14.5444 6.43905 13.6333 8.25016C12.7889 9.93905 11.5944 11.2168 10.05 12.0835C8.58333 12.9168 6.9 13.3335 5 13.3335H1.86667C1.73333 14.0891 1.66667 14.9224 1.66667 15.8335H0C0 14.7002 0.0944445 13.6613 0.283333 12.7168C0.0944445 11.6391 0 10.1779 0 8.3335C0 7.20016 0.216667 6.11683 0.65 5.0835C1.07222 4.09461 1.66944 3.21405 2.44167 2.44183C3.21389 1.66961 4.09444 1.07238 5.08333 0.650162C6.11667 0.216828 7.2 0.000162125 8.33333 0.000162125C8.66667 0.000162125 9.18889 0.0557175 9.9 0.166828C10.4778 0.255717 10.9333 0.311273 11.2667 0.333495C11.8333 0.37794 12.3889 0.383495 12.9333 0.350162C13.5889 0.294606 14.2778 0.177939 15 0.000162125ZM8.33333 1.66683C7.12222 1.66683 6 1.97238 4.96667 2.5835C3.96667 3.17238 3.17222 3.96683 2.58333 4.96683C1.97222 6.00016 1.66667 7.12239 1.66667 8.3335V9.20016C2.17778 8.40016 2.82222 7.65572 3.6 6.96683C4.34444 6.31127 5.22778 5.69461 6.25 5.11683L7.08333 6.55016C5.85 7.26127 4.85556 8.01127 4.1 8.80016C3.3 9.6335 2.70556 10.5891 2.31667 11.6668H5C6.67778 11.6668 8.13611 11.3002 9.375 10.5668C10.6139 9.8335 11.5667 8.75572 12.2333 7.3335C12.9333 5.85572 13.3 4.07238 13.3333 1.9835C12.7778 2.03905 12.2111 2.05572 11.6333 2.03349C11.1111 2.00016 10.5056 1.9335 9.81667 1.8335C9.32778 1.75572 9 1.7085 8.83333 1.69183C8.66667 1.67516 8.5 1.66683 8.33333 1.66683Z" fill="#2D5A27"/>
</svg>
