<svg width="28" height="29" viewBox="0 0 28 29" fill="none" xmlns="http://www.w3.org/2000/svg">
<path d="M27.84 1.94081e-06V3.05263C27.84 7.77404 26.9945 11.7933 25.3035 15.1105C23.7362 18.2039 21.5193 20.5442 18.6528 22.1316C15.9307 23.6579 12.8064 24.4211 9.28 24.4211H3.46453C3.21707 25.8049 3.09333 27.3312 3.09333 29H0C0 26.9242 0.175289 25.0214 0.525867 23.2916C0.175289 21.3175 0 18.6414 0 15.2632C0 13.1874 0.402133 11.2032 1.2064 9.31053C1.99004 7.4993 3.09849 5.88649 4.53173 4.47211C5.96498 3.05772 7.59929 1.96386 9.43467 1.19053C11.3525 0.396845 13.3632 1.94081e-06 15.4667 1.94081e-06C16.0853 1.94081e-06 17.0546 0.101757 18.3744 0.305266C19.4468 0.468073 20.2923 0.569828 20.9109 0.610529C21.9627 0.691932 22.9938 0.702108 24.0043 0.641056C25.221 0.539301 26.4996 0.325616 27.84 1.94081e-06ZM15.4667 3.05263C13.2188 3.05263 11.136 3.61228 9.21813 4.73158C7.36213 5.81018 5.88764 7.26526 4.79467 9.09684C3.66044 10.9895 3.09333 13.0449 3.09333 15.2632V16.8505C4.04196 15.3853 5.23804 14.0218 6.6816 12.76C8.06329 11.5593 9.70276 10.4298 11.6 9.37158L13.1467 11.9968C10.8576 13.2993 9.01191 14.673 7.6096 16.1179C6.1248 17.6442 5.02151 19.3944 4.29973 21.3684H9.28C12.394 21.3684 15.1006 20.6968 17.4 19.3537C19.6994 18.0105 21.4677 16.0365 22.7051 13.4316C24.0043 10.7249 24.6848 7.4586 24.7467 3.63263C23.7156 3.73439 22.6638 3.76491 21.5915 3.72421C20.6222 3.66316 19.4983 3.54105 18.2197 3.3579C17.3124 3.21544 16.704 3.12895 16.3947 3.09842C16.0853 3.0679 15.776 3.05263 15.4667 3.05263Z" fill="#2D5A27"/>
</svg>
