<svg width="7" height="12" viewBox="0 0 7 12" fill="none" xmlns="http://www.w3.org/2000/svg">
<path d="M4 4.66667H7L6.66667 6H4V12H2.66667V6H0V4.66667H2.66667V3.41333C2.66667 2.85333 2.69333 2.41778 2.74667 2.10667C2.8 1.84889 2.88889 1.6 3.01333 1.36C3.25333 0.924444 3.59111 0.591111 4.02667 0.36C4.25778 0.226666 4.50667 0.137777 4.77333 0.0933332C5.08444 0.0311108 5.52 0 6.08 0C6.42667 0 6.72889 0.0311108 6.98667 0.0933332V1.33333H6.08C5.65333 1.33333 5.34444 1.34667 5.15333 1.37333C4.96222 1.4 4.79556 1.45333 4.65333 1.53333C4.44889 1.64 4.29333 1.79111 4.18667 1.98667C4.11556 2.12889 4.06444 2.29556 4.03333 2.48667C4.00222 2.67778 3.98667 2.98667 3.98667 3.41333V4.66667H4Z" fill="#2D5A27"/>
</svg>
