<svg preserveAspectRatio="none" width="100%" height="100%" overflow="visible" style="display: block;" viewBox="0 0 17 16" fill="none" xmlns="http://www.w3.org/2000/svg">
<g id="Icon">
<path id="Vector" d="M10.9217 12.2133C10.575 12.2133 10.255 12.1289 9.96167 11.96C9.66833 11.7911 9.43278 11.5622 9.255 11.2733C9.07722 10.9844 8.98833 10.6667 8.98833 10.32L8.96167 9.26667C8.96167 9.16 8.92167 9.06667 8.84167 8.98667C8.76167 8.90667 8.66833 8.87111 8.56167 8.88L7.46833 9.02667C6.11722 9.20444 4.80611 9.82222 3.535 10.88C3.33944 9.79556 3.42833 8.84889 3.80167 8.04C4.175 7.25778 4.83722 6.56889 5.78833 5.97333L6.94833 5.24C7.04611 5.17778 7.10611 5.09333 7.12833 4.98667C7.15056 4.88 7.135 4.78222 7.08167 4.69333C7.055 4.64889 7.01944 4.60889 6.975 4.57333L5.90833 3.8C6.56611 3.76444 7.14389 3.79556 7.64167 3.89333C8.69944 4.10667 9.61944 4.50667 10.4017 5.09333C11.1928 5.68889 11.7972 6.45778 12.215 7.4C12.6594 8.38667 12.8817 9.51556 12.8817 10.7867C12.8817 10.92 12.8061 11.0889 12.655 11.2933C12.4772 11.5511 12.2594 11.76 12.0017 11.92C11.6728 12.1156 11.3128 12.2133 10.9217 12.2133ZM7.655 10.3467C7.66389 10.9244 7.815 11.46 8.10833 11.9533C8.40167 12.4467 8.79722 12.8356 9.295 13.12C9.79278 13.4044 10.335 13.5467 10.9217 13.5467C11.3661 13.5467 11.7883 13.4622 12.1883 13.2933C12.5883 13.1244 12.9394 12.8844 13.2417 12.5733H13.455C13.7217 12.5644 13.9394 12.5778 14.1083 12.6133C14.375 12.6756 14.6772 12.8089 15.015 13.0133C14.8906 12.4 14.7883 11.9733 14.7083 11.7333C14.6017 11.4044 14.4372 11.0889 14.215 10.7867C14.215 9.17778 13.9039 7.76 13.2817 6.53333C12.7306 5.44889 11.9528 4.55556 10.9483 3.85333C10.0506 3.23111 9.03722 2.80889 7.90833 2.58667C7.20611 2.44444 6.41056 2.41333 5.52167 2.49333C4.68611 2.57333 3.90611 2.73556 3.18167 2.98C2.45722 3.22444 1.94833 3.50222 1.655 3.81333C2.135 3.84889 2.62833 3.92444 3.135 4.04C3.96167 4.23556 4.61056 4.50222 5.08167 4.84L4.98833 4.90667C4.54389 5.19111 4.17944 5.46667 3.895 5.73333C3.37944 6.19556 2.975 6.71556 2.68167 7.29333C2.29944 8.04889 2.10389 8.88444 2.095 9.8C2.095 10.8933 2.36611 12.0889 2.90833 13.3867C4.03722 12.0711 5.17944 11.1778 6.335 10.7067C6.63722 10.5733 6.88611 10.4844 7.08167 10.44C7.19722 10.4044 7.34833 10.3778 7.535 10.36L7.655 10.3467Z" fill="var(--fill-0, #2D5A27)"/>
</g>
</svg>
