<svg preserveAspectRatio="xMidYMid meet" width="25" height="24" overflow="visible" style="display: block;" viewBox="0 0 25 24" fill="none" xmlns="http://www.w3.org/2000/svg">
<g id="Icon">
<path id="Vector" d="M21.5 21.5V19.5C21.5 16.4067 20.9533 13.7733 19.86 11.6C18.8467 9.57333 17.4133 8.04 15.56 7C13.8 6 11.78 5.5 9.5 5.5H5.74C5.58 4.59333 5.5 3.59333 5.5 2.5H3.5C3.5 3.86 3.61333 5.10667 3.84 6.24C3.61333 7.53333 3.5 9.28667 3.5 11.5C3.5 12.86 3.76 14.16 4.28 15.4C4.78667 16.5867 5.50333 17.6433 6.43 18.57C7.35667 19.4967 8.41333 20.2133 9.6 20.72C10.84 21.24 12.14 21.5 13.5 21.5C13.9 21.5 14.5267 21.4333 15.38 21.3C16.0733 21.1933 16.62 21.1267 17.02 21.1C17.7 21.0467 18.3667 21.04 19.02 21.08C19.8067 21.1467 20.6333 21.2867 21.5 21.5ZM13.5 19.5C12.0467 19.5 10.7 19.1333 9.46 18.4C8.26 17.6933 7.30667 16.74 6.6 15.54C5.86667 14.3 5.5 12.9533 5.5 11.5V10.46C6.11333 11.42 6.88667 12.3133 7.82 13.14C8.71333 13.9267 9.77333 14.6667 11 15.36L12 13.64C10.52 12.7867 9.32667 11.8867 8.42 10.94C7.46 9.94 6.74667 8.79333 6.28 7.5H9.5C11.5133 7.5 13.2633 7.94 14.75 8.82C16.2367 9.7 17.38 10.9933 18.18 12.7C19.02 14.4733 19.46 16.6133 19.5 19.12C18.8333 19.0533 18.1533 19.0333 17.46 19.06C16.8333 19.1 16.1067 19.18 15.28 19.3C14.6933 19.3933 14.3 19.45 14.1 19.47C13.9 19.49 13.7 19.5 13.5 19.5Z" fill="var(--fill-0, #2D5A27)"/>
</g>
</svg>
