<svg width="14" height="14" viewBox="0 0 14 14" fill="none" xmlns="http://www.w3.org/2000/svg">
<path d="M6.99991 4.90011C6.61725 4.90011 6.26492 4.99344 5.94293 5.18011C5.62093 5.36677 5.3666 5.6211 5.17994 5.9431C4.99327 6.26509 4.89994 6.61742 4.89994 7.00009C4.89994 7.38275 4.99327 7.73508 5.17994 8.05707C5.3666 8.37907 5.62093 8.6334 5.94293 8.82006C6.26492 9.00673 6.61725 9.10006 6.99991 9.10006C7.38258 9.10006 7.73491 9.00673 8.0569 8.82006C8.3789 8.6334 8.63323 8.37907 8.81989 8.05707C9.00656 7.73508 9.09989 7.38275 9.09989 7.00009C9.09989 6.61742 9.00656 6.26509 8.81989 5.9431C8.63323 5.6211 8.3789 5.36677 8.0569 5.18011C7.73491 4.99344 7.38258 4.90011 6.99991 4.90011ZM6.99991 3.50013C7.63457 3.50013 8.22023 3.65646 8.75689 3.96912C9.29355 4.28178 9.71822 4.70645 10.0309 5.24311C10.3435 5.77977 10.4999 6.36543 10.4999 7.00009C10.4999 7.63474 10.3435 8.2204 10.0309 8.75706C9.71822 9.29372 9.29355 9.71839 8.75689 10.031C8.22023 10.3437 7.63457 10.5 6.99991 10.5C6.36526 10.5 5.7796 10.3437 5.24294 10.031C4.70628 9.71839 4.28161 9.29372 3.96895 8.75706C3.65629 8.2204 3.49996 7.63474 3.49996 7.00009C3.49996 6.36543 3.65629 5.77977 3.96895 5.24311C4.28161 4.70645 4.70628 4.28178 5.24294 3.96912C5.7796 3.65646 6.36526 3.50013 6.99991 3.50013ZM11.5499 3.31813C11.5499 3.56079 11.4635 3.76846 11.2909 3.94112C11.1182 4.11379 10.9129 4.20012 10.6749 4.20012C10.4369 4.20012 10.2315 4.11379 10.0589 3.94112C9.88621 3.76846 9.79988 3.56313 9.79988 3.32513C9.79988 3.08713 9.88621 2.8818 10.0589 2.70914C10.2315 2.53647 10.4369 2.45014 10.6749 2.45014C10.9129 2.45014 11.1182 2.53647 11.2909 2.70914C11.4635 2.8818 11.5499 3.0848 11.5499 3.31813ZM6.99991 1.40015C6.14126 1.40015 5.55793 1.40249 5.24994 1.40715C4.94194 1.41182 4.58728 1.42349 4.18595 1.44215C3.68196 1.46082 3.26196 1.53548 2.92596 1.66615C2.63663 1.77815 2.3823 1.94381 2.16297 2.16314C1.94364 2.38248 1.77798 2.6368 1.66598 2.92613C1.53531 3.26213 1.46065 3.68213 1.44198 4.18612C1.42332 4.56878 1.41165 4.91178 1.40698 5.21511C1.40232 5.51844 1.39998 6.11343 1.39998 7.00009C1.39998 7.85874 1.40232 8.44207 1.40698 8.75006C1.41165 9.05806 1.42332 9.41272 1.44198 9.81405C1.46065 10.318 1.53531 10.738 1.66598 11.074C1.77798 11.3634 1.94364 11.6177 2.16297 11.837C2.3823 12.0564 2.63663 12.2174 2.92596 12.32C3.26196 12.46 3.68196 12.5394 4.18595 12.558C4.56861 12.5767 4.91161 12.5884 5.21494 12.593C5.51827 12.5977 6.11326 12.6 6.99991 12.6C7.85857 12.6 8.4419 12.5977 8.74989 12.593C9.05789 12.5884 9.41255 12.5767 9.81388 12.558C10.3179 12.5394 10.7379 12.4647 11.0739 12.334C11.3632 12.222 11.6175 12.0564 11.8369 11.837C12.0562 11.6177 12.2172 11.3634 12.3198 11.074C12.4598 10.738 12.5392 10.318 12.5578 9.81405C12.5765 9.43139 12.5882 9.08839 12.5928 8.78506C12.5975 8.48173 12.5998 7.88674 12.5998 7.00009C12.5998 6.14143 12.5975 5.5581 12.5928 5.25011C12.5882 4.94211 12.5765 4.58745 12.5578 4.18612C12.5392 3.68213 12.4645 3.26213 12.3338 2.92613C12.2219 2.6368 12.0562 2.38248 11.8369 2.16314C11.6175 1.94381 11.3632 1.77815 11.0739 1.66615C10.7379 1.53548 10.3179 1.46082 9.81388 1.44215C9.43122 1.42349 9.08822 1.41182 8.78489 1.40715C8.48156 1.40249 7.88657 1.40015 6.99991 1.40015ZM6.99991 0.000170229C7.91457 0.000170229 8.5399 0.0048375 8.87589 0.01417C9.15589 0.01417 9.49188 0.0235036 9.88388 0.0421697C10.5372 0.0701693 11.1019 0.177502 11.5779 0.364166C12.0539 0.55083 12.4692 0.821494 12.8238 1.17616C13.1785 1.53082 13.4492 1.94615 13.6358 2.42214C13.8225 2.89814 13.9298 3.46279 13.9578 4.11612C13.9765 4.51745 13.9858 4.85345 13.9858 5.12411C13.9952 5.47877 13.9998 6.10876 13.9998 7.01408C13.9998 7.91941 13.9952 8.54007 13.9858 8.87606C13.9858 9.15606 13.9765 9.49205 13.9578 9.88405C13.9298 10.5374 13.8225 11.102 13.6358 11.578C13.4492 12.054 13.1785 12.4694 12.8238 12.824C12.4692 13.1787 12.0539 13.4493 11.5779 13.636C11.1019 13.8227 10.5372 13.93 9.88388 13.958C9.48255 13.9767 9.14655 13.986 8.87589 13.986C8.52123 13.9953 7.89124 14 6.98592 14C6.08059 14 5.45993 13.9953 5.12394 13.986C4.84394 13.986 4.50795 13.9767 4.11595 13.958C3.46262 13.93 2.89796 13.8227 2.42197 13.636C1.94598 13.4493 1.53065 13.1787 1.17599 12.824C0.821323 12.4694 0.55066 12.054 0.363996 11.578C0.177331 11.102 0.0699991 10.5374 0.0419995 9.88405C0.023333 9.48272 0.0139998 9.14673 0.0139998 8.87606C0.00466661 8.5214 0 7.89141 0 6.98609C0 6.08076 0.00466661 5.4601 0.0139998 5.12411C0.0139998 4.84411 0.023333 4.50812 0.0419995 4.11612C0.0699991 3.46279 0.177331 2.89814 0.363996 2.42214C0.55066 1.94615 0.821323 1.53082 1.17599 1.17616C1.53065 0.821494 1.94598 0.55083 2.42197 0.364166C2.89796 0.177502 3.46262 0.0701693 4.11595 0.0421697C4.51728 0.0235036 4.85327 0.01417 5.12394 0.01417C5.4786 0.0048375 6.10393 0.000170229 6.99991 0.000170229Z" fill="#2D5A27"/>
</svg>
